# xmcd
#
# Track frame offsets: 
#        150
#        19006
#        35943
#        53260
#        69689
#        87595
#        107841
#        125839
#        145956
#        163433
#        183505
#        202431
#        218376
#        237295
#
# Disc length: 3416 seconds
#
# Revision: 0
# Processed by: cddbd v1.5.2PL0 Copyright (c) Steve Scherf et al.
# Submitted via: ExactAudioCopy v0.99pb4
#
DISCID=da0d560e
DTITLE=이홍재 - 로맨틱 Saxophone 가요발라드 CD2
DYEAR=2010
DGENRE=Ballad
TTITLE0=사랑 안 해
TTITLE1=까만 안경
TTITLE2=나 같은 건 없는 건가요
TTITLE3=귀로
TTITLE4=나쁜 사람
TTITLE5=그 남자 그 여자
TTITLE6=서쪽하늘
TTITLE7=처음부터 지금까지
TTITLE8=사랑했나봐
TTITLE9=중독된 사랑
TTITLE10=하늘이여 제발
TTITLE11=마친 사랑의 노래
TTITLE12=해바라기
TTITLE13=화장을고치고
EXTD=
EXTT0=
EXTT1=
EXTT2=
EXTT3=
EXTT4=
EXTT5=
EXTT6=
EXTT7=
EXTT8=
EXTT9=
EXTT10=
EXTT11=
EXTT12=
EXTT13=
PLAYORDER=
